<?xml version="1.0" encoding="UTF-8"?>
<svg id="Layer_1" data-name="Layer 1" xmlns="http://www.w3.org/2000/svg" viewBox="377 262 398 124">
  <defs>
    <style>
      .cls-1 {
        fill: #fff;
      }
    </style>
  </defs>
  <g>
    <path class="cls-1" d="M521.11,358.42v-4.98l4.36-.62c1.04-.14,1.73-.35,2.08-.62.34-.28.52-.86.52-1.76v-57.17c0-.69-.17-1.21-.52-1.56-.35-.35-.83-.59-1.45-.73l-4.98-1.35v-3.94l15.67-4.36v69.1c0,.9.14,1.49.41,1.76.28.28.93.48,1.97.62l4.46.62v4.98h-22.51Z"/>
    <path class="cls-1" d="M549.43,358.42v-4.98l4.36-.62c1.04-.14,1.71-.35,2.02-.62.31-.28.47-.86.47-1.76v-31.44c0-.69-.14-1.23-.41-1.61-.28-.38-.8-.64-1.56-.78l-4.98-1.24v-3.84l15.67-4.46v43.37c0,.9.14,1.49.41,1.76.28.28.93.48,1.97.62l4.36.62v4.98h-22.31ZM555.76,297.15c-1.04-1-1.56-2.33-1.56-3.99s.52-3.01,1.56-4.05,2.52-1.56,4.46-1.56c1.66,0,3.02.5,4.1,1.5,1.07,1,1.61,2.27,1.61,3.79,0,1.87-.54,3.31-1.61,4.31-1.07,1-2.51,1.5-4.31,1.5s-3.22-.5-4.25-1.5Z"/>
    <path class="cls-1" d="M577.76,358.42v-4.98l4.36-.62c1.04-.14,1.71-.35,2.02-.62.31-.28.47-.86.47-1.76v-31.44c0-.69-.14-1.23-.41-1.61-.28-.38-.8-.64-1.56-.78l-4.98-1.24v-3.84l14.42-4.46c.41,1.66.71,3.42.88,5.29.17,1.87.29,3.49.36,4.88v33.2c0,.9.12,1.49.36,1.76.24.28.88.48,1.92.62l4.05.62v4.98h-21.89ZM608.78,358.42v-4.98l4.36-.62c.97-.14,1.61-.35,1.92-.62s.47-.86.47-1.76v-27.08c0-3.32-.69-5.67-2.07-7.05-1.38-1.38-3.63-2.07-6.74-2.07-2.49,0-5.1.69-7.83,2.07-2.73,1.38-5.41,3.32-8.04,5.81-.21.14-.4.28-.57.42-.17.14-.36.28-.57.42v-5.5c4.91-3.8,9.01-6.52,12.29-8.14s6.66-2.44,10.12-2.44,6.43.99,8.71,2.96,3.42,5.31,3.42,10.01v30.61c0,.9.14,1.49.42,1.76.28.28.93.48,1.97.62l4.46.62v4.98h-22.31Z"/>
    <path class="cls-1" d="M644,356.71c-3.42-2.04-6-4.89-7.73-8.56-1.73-3.66-2.59-7.82-2.59-12.45,0-6.22,1.14-11.53,3.42-15.92,2.28-4.39,5.29-7.66,9.03-9.8,3.74-2.14,7.82-3.22,12.24-3.22,6.43,0,11.21,1.97,14.32,5.91,3.11,3.94,4.36,9.34,3.73,16.19l-35.79,2.7v-5.19l23.24-1.76c1.31-.14,2.16-.35,2.54-.62.38-.27.57-.83.57-1.66,0-2.84-.87-5.26-2.59-7.26-1.73-2.01-4.19-3.01-7.37-3.01-4.43,0-7.99,1.56-10.69,4.67-2.7,3.11-4.05,7.85-4.05,14.21,0,6.71,1.52,11.98,4.56,15.82s7.47,5.76,13.28,5.76c3.25,0,6.12-.4,8.61-1.19,2.49-.79,4.77-1.85,6.85-3.17v5.29c-2.28,1.87-5.01,3.39-8.2,4.57-3.18,1.18-6.78,1.76-10.79,1.76-4.98,0-9.18-1.02-12.61-3.06Z"/>
    <path class="cls-1" d="M685.97,356.5c-2.49-2.32-3.73-5.52-3.73-9.6,0-2.97.62-5.48,1.87-7.52,1.25-2.04,3.18-3.72,5.81-5.03,2.63-1.31,6.02-2.25,10.17-2.8l13.07-1.66.52,4.46-10.69,1.45c-4.5.62-7.54,1.64-9.13,3.06-1.59,1.42-2.39,3.41-2.39,5.97s.66,4.6,1.97,6.12c1.31,1.52,3.28,2.28,5.91,2.28,1.59,0,3.34-.4,5.24-1.19,1.9-.79,3.68-1.99,5.34-3.58,1.66-1.59,3.01-3.59,4.05-6.02l2.28,2.9c-.07.07-.1.12-.1.16s-.03.09-.1.15c-2.01,3.18-4.06,5.85-6.17,7.99-2.11,2.14-4.39,3.74-6.85,4.77-2.46,1.04-4.93,1.56-7.42,1.56-3.94,0-7.16-1.16-9.65-3.47ZM720.26,351.05c.52.76,1.4,1.14,2.65,1.14.76,0,1.61-.1,2.54-.31s1.85-.42,2.75-.62v4.46c-1.45,1.18-3.03,2.13-4.72,2.85-1.7.72-3.37,1.09-5.03,1.09-2.35,0-4.19-.81-5.5-2.44-1.32-1.62-1.94-4.37-1.87-8.25l.41-25.73c0-4.15-.69-7.04-2.07-8.66-1.38-1.62-3.6-2.44-6.64-2.44-2.28,0-4.19.28-5.71.83-1.52.55-2.73,1.49-3.63,2.8-.9,1.32-1.52,3.08-1.87,5.29l-.1.72h-6.54l-.1-11c3.25-1.18,6.73-2.14,10.43-2.91,3.7-.76,7.31-1.14,10.84-1.14,3.18,0,5.81.43,7.89,1.3,2.07.87,3.61,2.47,4.62,4.82,1,2.35,1.47,5.5,1.4,9.44l-.41,24.49c-.07,2.07.16,3.49.67,4.25Z"/>
    <path class="cls-1" d="M732.35,358.42v-4.98l4.36-.62c1.04-.14,1.71-.35,2.02-.62.31-.28.47-.86.47-1.76l-.1-31.44c0-.69-.12-1.23-.36-1.61-.24-.38-.74-.64-1.51-.78l-4.88-1.24v-3.84l14.42-4.46c.35,1.66.61,3.42.78,5.29.17,1.87.29,3.49.36,4.88v33.2c0,.9.17,1.49.52,1.76s1.21.48,2.59.62l5.5.62v4.98h-24.17ZM756.05,320.44c-3.49,1.52-6.9,3.56-10.22,6.12l-.21-2.91c.21-.27.41-.54.62-.78.21-.24.41-.5.62-.78,2.63-3.25,5.08-5.95,7.37-8.09,2.28-2.14,4.53-3.87,6.74-5.19,2.21-1.31,4.25-1.9,6.12-1.76v9.96c-3.87.76-7.56,1.9-11.05,3.42Z"/>
  </g>
  <g>
    <g id="_Radial_Repeat_" data-name="&amp;lt;Radial Repeat&amp;gt;">
      <path class="cls-1" d="M409.64,290.65h0c-.92.24-1.71.84-2.19,1.66l-7.18,12.3c-1,1.71-3.2,2.29-4.91,1.29l-3.82-2.23c-1.71-1-2.29-3.2-1.29-4.91l7.18-12.3c1-1.71,3.2-2.29,4.91-1.29l3.82,2.23c.82.48,1.8.61,2.72.37h0c.92-.24,1.71-.84,2.19-1.66l2.23-3.82c1-1.71,3.2-2.29,4.91-1.29l12.3,7.18c1.71,1,2.29,3.2,1.29,4.91l-2.23,3.82c-1,1.71-3.2,2.29-4.91,1.29l-12.3-7.18c-.82-.48-1.8-.61-2.72-.37Z"/>
    </g>
    <g id="_Radial_Repeat_-2" data-name="&amp;lt;Radial Repeat&amp;gt;">
      <path class="cls-1" d="M395.1,332.17h0c-.25.92-.13,1.9.35,2.73l7.06,12.36c.98,1.72.38,3.92-1.34,4.9l-3.84,2.19c-1.72.98-3.92.38-4.9-1.34l-7.06-12.36c-.98-1.72-.38-3.92,1.34-4.9l3.84-2.19c.83-.47,1.43-1.25,1.68-2.17h0c.25-.92.13-1.9-.35-2.73l-2.19-3.84c-.98-1.72-.38-3.92,1.34-4.9l12.36-7.06c1.72-.98,3.92-.38,4.9,1.34l2.19,3.84c.98,1.72.38,3.92-1.34,4.9l-12.36,7.06c-.83.47-1.43,1.25-1.68,2.17Z"/>
    </g>
    <g id="_Radial_Repeat_-3" data-name="&amp;lt;Radial Repeat&amp;gt;">
      <path class="cls-1" d="M423.79,365.52h0c.67.68,1.58,1.06,2.53,1.06l14.24.07c1.98,0,3.58,1.62,3.57,3.61l-.02,4.42c0,1.98-1.62,3.58-3.61,3.57l-14.24-.07c-1.98,0-3.58-1.62-3.57-3.61l.02-4.42c0-.95-.37-1.87-1.04-2.54h0c-.67-.68-1.58-1.06-2.53-1.06l-4.42-.02c-1.98,0-3.58-1.62-3.57-3.61l.07-14.24c0-1.98,1.62-3.58,3.61-3.57l4.42.02c1.98,0,3.58,1.62,3.57,3.61l-.07,14.24c0,.95.37,1.87,1.04,2.54Z"/>
    </g>
    <g id="_Radial_Repeat_-4" data-name="&amp;lt;Radial Repeat&amp;gt;">
      <path class="cls-1" d="M467.02,357.35h0c.92-.24,1.71-.84,2.19-1.66l7.18-12.3c1-1.71,3.2-2.29,4.91-1.29l3.82,2.23c1.71,1,2.29,3.2,1.29,4.91l-7.18,12.3c-1,1.71-3.2,2.29-4.91,1.29l-3.82-2.23c-.82-.48-1.8-.61-2.72-.37h0c-.92.24-1.71.84-2.19,1.66l-2.23,3.82c-1,1.71-3.2,2.29-4.91,1.29l-12.3-7.18c-1.71-1-2.29-3.2-1.29-4.91l2.23-3.82c1-1.71,3.2-2.29,4.91-1.29l12.3,7.18c.82.48,1.8.61,2.72.37Z"/>
    </g>
    <g id="_Radial_Repeat_-5" data-name="&amp;lt;Radial Repeat&amp;gt;">
      <path class="cls-1" d="M481.56,315.83h0c.25-.92.13-1.9-.35-2.73l-7.06-12.36c-.98-1.72-.38-3.92,1.34-4.9l3.84-2.19c1.72-.98,3.92-.38,4.9,1.34l7.06,12.36c.98,1.72.38,3.92-1.34,4.9l-3.84,2.19c-.83.47-1.43,1.25-1.68,2.17h0c-.25.92-.13,1.9.35,2.73l2.19,3.84c.98,1.72.38,3.92-1.34,4.9l-12.36,7.06c-1.72.98-3.92.38-4.9-1.34l-2.19-3.84c-.98-1.72-.38-3.92,1.34-4.9l12.36-7.06c.83-.47,1.43-1.25,1.68-2.17Z"/>
    </g>
    <g id="_Radial_Repeat_-6" data-name="&amp;lt;Radial Repeat&amp;gt;">
      <path class="cls-1" d="M452.87,282.48h0c-.67-.68-1.58-1.06-2.53-1.06l-14.24-.07c-1.98,0-3.58-1.62-3.57-3.61l.02-4.42c0-1.98,1.62-3.58,3.61-3.57l14.24.07c1.98,0,3.58,1.62,3.57,3.61l-.02,4.42c0,.95.37,1.87,1.04,2.54h0c.67.68,1.58,1.06,2.53,1.06l4.42.02c1.98,0,3.58,1.62,3.57,3.61l-.07,14.24c0,1.98-1.62,3.58-3.61,3.57l-4.42-.02c-1.98,0-3.58-1.62-3.57-3.61l.07-14.24c0-.95-.37-1.87-1.04-2.54Z"/>
    </g>
  </g>
</svg>